<?xml version="1.0" encoding="utf-8"?>
<!-- Generator: Adobe Illustrator 22.0.1, SVG Export Plug-In . SVG Version: 6.00 Build 0)  -->
<svg version="1.1" id="Слой_1" xmlns="http://www.w3.org/2000/svg" xmlns:xlink="http://www.w3.org/1999/xlink" x="0px" y="0px"
	 viewBox="0 0 595.3 595.3" style="enable-background:new 0 0 595.3 595.3;" xml:space="preserve">
<style type="text/css">
	.st0{fill:#FFFFFF;}
	.st1{fill:#145126;}
	.st2{fill:#2F7732;stroke:#2F7732;stroke-width:2.551;stroke-miterlimit:10;}
	.st3{fill:#2F7732;}
	.st4{display:none;}
	.st5{display:inline;fill:#2F7732;}
</style>
<g>
	<g>
		<g>
			<circle class="st0" cx="297.6" cy="297.6" r="262.8"/>
		</g>
		<g>
			<path class="st1" d="M297.6,37.4c143.5,0,260.2,116.7,260.2,260.2S441.1,557.8,297.6,557.8S37.4,441.1,37.4,297.6
				S154.2,37.4,297.6,37.4 M297.6,32.3c-146.5,0-265.3,118.8-265.3,265.3s118.8,265.3,265.3,265.3s265.3-118.8,265.3-265.3
				S444.2,32.3,297.6,32.3L297.6,32.3z"/>
		</g>
	</g>
	<g>
		<g>
			<path class="st3" d="M411.6,158.3c-1.7-17.8-7.7-33-20.1-50.6c-17.5-24.8-45.9-39.6-76.2-39.6c-25.7,0-49.6,10.3-67.4,28.9
				l-1.8,1.9l-3.5-1.4c-5.7-2.3-11.7-3.4-17.8-3.4c-9.9,0-19.4,3-27.5,8.6c-5.6,3.8-10.3,8.8-13.8,14.6
				c10.6,4.3,19.3,12.5,24.2,22.8c0.9,1.8,3,2.6,4.8,1.9c8.2-3.3,17-5.1,25.9-5.1c29.6,0,55.5,18.6,64.9,46.4
				c19.2,5.9,32.5,23.6,32.5,43.9c0,0.9,0,1.9-0.1,2.8c-0.1,2.4,2,4.3,4.3,3.8C363.8,228.5,416.5,210.7,411.6,158.3z"/>
		</g>
		<g>
			<path class="st3" d="M418.5,212.7c3-1.9,6.2-4.1,9.1-6.6c5.8-5.1,12.2-10.4,19.4-13.9c7.7-3.7,16-4.2,23.9-4.2
				c16.9,0,32.7,7.1,43.9,19.1c-1.6-8.5-4-16.7-7.4-24.7c-6-14.3-14.7-27.2-25.7-38.3c-11-11.1-23.8-19.8-38.1-25.9
				c-13.4-5.8-27.6-9-42.3-9.6c10.7,16.5,16.3,31.7,17.9,49c3.3,35.5-16.7,56.6-38.7,69.1c-1.5,0.9-0.6,3.2,1.1,2.7
				c5.6-1.6,11.2-3.6,16.8-6C405.4,220.4,412.2,216.8,418.5,212.7z"/>
		</g>
		<g>
			<path class="st3" d="M327.1,218.2c-3.3-14-14.7-24.7-28.7-28.2l-1.2-0.3l-0.6-2.1c-7.9-25.7-31.3-43-58.3-43
				c-10.4,0-20.6,2.7-29.7,7.7l0,0c-2.2,1.2-4.9,0.1-5.6-2.4l0,0c-3.4-12.8-13.5-23.1-26.3-26.8c-1.1-0.3-31-7.1-45.7,27l-0.6,1.5
				l-1.5,0.6c-13.2,5.1-25.1,13.4-34.6,24l-2.6,2.9l-1.3,1.7c-5.9,7.6-10.4,16-13.6,25c-3.3,9.4-5,19.3-5,29.3
				c0,13.8,3.1,27.1,9.2,39.3c5.4,10.9,13.1,20.7,22.4,28.6c27.2-18.4,91.8-51.3,168.8-16.5c2.9,1.3,6.2-0.4,6.8-3.5
				c2.3-12.4,8.5-24,17.8-32.8c6.9-6.6,14.8-10.8,24.9-13.2c3.4-0.8,5.9-3.7,6.2-7.2C328.4,226.1,328,222.1,327.1,218.2z"/>
		</g>
		<g>
			<path class="st3" d="M284.2,319.7c-2.8-6.5-4.4-13.6-5.1-18.5c-0.3-2-1.6-3.7-3.3-4.5c-74-37-137.2-7.2-165.3,11.1l7.6,4.9
				c1,0.6,7.7,4.1,9.5,4.9c4.3,1.8,8.8,3.2,13.3,4.2c17.3,4,34.3,3.9,47.8-0.2c6.5-2,12.4-4.9,17.5-8.7l2.8-2.1l3.6,4
				c9.7,11,23.7,17.4,38.4,17.4C263.2,332.2,274.9,327.8,284.2,319.7z"/>
		</g>
		<g>
			<g>
				<path class="st3" d="M421.9,347.1c3-0.5,6-1.3,9-2.1c5.5-1.4,11.1-2.9,16.8-2.9c14.5,0,28,7.2,36,19.3c7.1-3.3,13-8.6,17.3-15.1
					c4.5-6.8,6.8-14.8,6.8-23c0-9.3-3-18.2-8.6-25.6l-0.6-0.8l-2.2-2.8l3.6-2.6c14.5-9.7,23.2-26,23.2-43.5
					c0-28.8-23.5-52.3-52.3-52.3c-8,0-14.6,0.6-20.6,3.5c-6.4,3.1-12.2,8-17.7,12.8c-3.3,2.9-6.8,5.2-10,7.3
					c-6.7,4.3-13.9,8.1-21.3,11.3c-14.7,6.3-29.3,9.9-43.5,10.9c-3.1,0.2-6.2,0.4-9.3,0.5c-17.1,0.8-33.2,1.6-46.3,14
					c-10.4,9.8-16.3,23.7-16.3,38c0,28.8,23.5,52.3,52.3,52.3c5.5,0,10.9-0.9,16.2-2.6l1.2-0.4l1.2,0.4c12.6,4.3,25.7,6.5,39.2,6.5
					C404.1,350.1,412.5,348.7,421.9,347.1z"/>
			</g>
		</g>
	</g>
	<g>
		<g class="st4">
			<path class="st5" d="M108,453.3c-6-5.7-9-14.5-9-26.5s3-20.8,9-26.5c6-5.7,14.9-8.6,26.9-8.6h10.8c7.3,0,13.8,1.9,19.4,5.7
				c5.6,3.8,8.4,9,8.4,15.6c0,1.9-0.6,3.3-1.7,4.1c-1.1,0.8-2.2,1.2-3.3,1.2h-5.8c-3,0-5.3-1.8-6.9-5.3c-2.4-5.1-6.4-7.6-11.9-7.6
				h-8.6c-7.1,0-11.8,1.5-14.4,4.5c-2.5,3-3.8,8.6-3.8,16.8c0,8.2,1.3,13.8,3.8,16.9c2.5,3,7.3,4.6,14.4,4.6h9.6
				c5.5,0,9.5-2.5,11.8-7.6c1.6-3.6,4-5.4,7-5.4h5.8c1.5,0,2.7,0.6,3.6,1.7c0.9,1.1,1.3,2.4,1.3,3.7c0,6.6-2.8,11.8-8.4,15.6
				c-5.6,3.8-12.1,5.7-19.4,5.7h-11.8C122.9,461.9,114,459,108,453.3z"/>
			<path class="st5" d="M183.9,456.9v-60.2c0-1.3,0.4-2.3,1.3-3.2c0.9-0.9,1.9-1.4,3.2-1.4h36.9c19.5,0,29.3,9,29.3,27
				c0,18-9.8,27-29.3,27h-23.2v10.9c0,1.3-0.4,2.3-1.3,3.2s-2,1.3-3.2,1.3h-9.1c-1.3,0-2.3-0.4-3.2-1.3S183.9,458.2,183.9,456.9z
				 M202.1,432.4h17.6c5.4,0,9.5-0.9,12.3-2.7c2.8-1.8,4.2-5.3,4.2-10.5c0-5.2-1.4-8.7-4.2-10.5c-2.8-1.8-6.9-2.7-12.3-2.7h-17.6
				V432.4z"/>
			<path class="st5" d="M263.4,456.8v-60.2c0-1.3,0.5-2.3,1.4-3.2c0.9-0.9,2-1.3,3.2-1.3h55.7c1.3,0,2.3,0.5,3.2,1.4s1.3,2,1.3,3.2
				v4.5c0,1.3-0.4,2.3-1.3,3.2s-2,1.3-3.2,1.3h-42.1v14.1h36.3c1.3,0,2.3,0.4,3.2,1.3c0.9,0.9,1.3,2,1.3,3.2v4.5
				c0,1.3-0.4,2.3-1.3,3.2c-0.9,0.9-2,1.3-3.2,1.3h-36.3v14.3h42c1.2,0,2.3,0.4,3.1,1.3c0.9,0.9,1.3,1.9,1.3,3.2v4.6
				c0,1.3-0.5,2.3-1.4,3.2c-0.9,0.9-2,1.3-3.2,1.3H268c-1.3,0-2.3-0.4-3.2-1.3C263.9,459.3,263.4,458.1,263.4,456.8z"/>
			<path class="st5" d="M330.3,456.9v-4.6c0-1.3,0.4-2.3,1.3-3.2c0.9-0.9,2-1.3,3.2-1.3h3.8l9-36.6c3.1-12.7,13.6-19.1,31.4-19.1
				h26.1c1.3,0,2.3,0.4,3.2,1.3c0.9,0.9,1.3,1.9,1.3,3.2V457c0,1.3-0.4,2.3-1.3,3.2s-2,1.3-3.2,1.3h-70.3c-1.3,0-2.3-0.4-3.2-1.3
				S330.3,458.2,330.3,456.9z M357.2,447.8h34.3v-42H377c-3.1,0-5.6,0.8-7.6,2.5c-2,1.7-3.4,4-4.1,7L357.2,447.8z"/>
			<path class="st5" d="M417.8,457l12.1-46c3.3-12.5,14-18.8,32.1-18.9h26.1c1.2,0,2.2,0.5,3,1.4c0.8,0.9,1.2,2,1.2,3.1V457
				c0,1.3-0.5,2.3-1.4,3.2c-0.9,0.9-2,1.3-3.2,1.3h-9.1c-1.3,0-2.4-0.4-3.3-1.3s-1.3-1.9-1.3-3.3v-12.2h-34.4l-3.2,12.2
				c-0.3,1.3-1,2.4-2.2,3.3c-1.1,0.9-2.3,1.3-3.6,1.3h-9.5c-1.3,0-2.2-0.4-2.7-1.1c-0.5-0.7-0.8-1.4-0.8-1.9
				C417.7,457.9,417.7,457.4,417.8,457z M443.3,431.1h30.8v-25.2h-13.8c-3.1,0-5.8,0.9-8.1,2.6c-2.3,1.8-3.9,4.1-4.7,7.1
				L443.3,431.1z"/>
		</g>
		<g>
			<path class="st1" d="M108,447.5c-6-5.7-9-14.5-9-26.5s3-20.8,9-26.5c6-5.7,14.9-8.6,26.9-8.6h10.8c7.3,0,13.8,1.9,19.4,5.7
				c5.6,3.8,8.4,9,8.4,15.6c0,1.9-0.6,3.3-1.7,4.1c-1.1,0.8-2.2,1.2-3.3,1.2h-5.8c-3,0-5.3-1.8-6.9-5.3c-2.4-5.1-6.4-7.6-11.9-7.6
				h-8.6c-7.1,0-11.8,1.5-14.4,4.5c-2.5,3-3.8,8.6-3.8,16.8c0,8.2,1.3,13.8,3.8,16.9c2.5,3,7.3,4.6,14.4,4.6h9.6
				c5.5,0,9.5-2.5,11.8-7.6c1.6-3.6,4-5.4,7-5.4h5.8c1.5,0,2.7,0.6,3.6,1.7c0.9,1.1,1.3,2.4,1.3,3.7c0,6.6-2.8,11.8-8.4,15.6
				c-5.6,3.8-12.1,5.7-19.4,5.7h-11.8C122.9,456.1,114,453.2,108,447.5z"/>
			<path class="st1" d="M183.9,451.2V391c0-1.3,0.4-2.3,1.3-3.2c0.9-0.9,1.9-1.4,3.2-1.4h36.9c19.5,0,29.3,9,29.3,27
				c0,18-9.8,27-29.3,27h-23.2v10.9c0,1.3-0.4,2.3-1.3,3.2c-0.9,0.9-2,1.3-3.2,1.3h-9.1c-1.3,0-2.3-0.4-3.2-1.3
				C184.3,453.5,183.9,452.4,183.9,451.2z M202.1,426.6h17.6c5.4,0,9.5-0.9,12.3-2.7c2.8-1.8,4.2-5.3,4.2-10.5
				c0-5.2-1.4-8.7-4.2-10.5c-2.8-1.8-6.9-2.7-12.3-2.7h-17.6V426.6z"/>
			<path class="st1" d="M263.4,451.1v-60.2c0-1.3,0.5-2.3,1.4-3.2c0.9-0.9,2-1.3,3.2-1.3h55.7c1.3,0,2.3,0.5,3.2,1.4
				c0.9,0.9,1.3,2,1.3,3.2v4.5c0,1.3-0.4,2.3-1.3,3.2s-2,1.3-3.2,1.3h-42.1v14.1h36.3c1.3,0,2.3,0.4,3.2,1.3c0.9,0.9,1.3,2,1.3,3.2
				v4.5c0,1.3-0.4,2.3-1.3,3.2c-0.9,0.9-2,1.3-3.2,1.3h-36.3V442h42c1.2,0,2.3,0.4,3.1,1.3c0.9,0.9,1.3,1.9,1.3,3.2v4.6
				c0,1.3-0.5,2.3-1.4,3.2c-0.9,0.9-2,1.3-3.2,1.3H268c-1.3,0-2.3-0.4-3.2-1.3C263.9,453.5,263.4,452.4,263.4,451.1z"/>
			<path class="st1" d="M330.3,451.2v-4.6c0-1.3,0.4-2.3,1.3-3.2c0.9-0.9,2-1.3,3.2-1.3h3.8l9-36.6c3.1-12.7,13.6-19.1,31.4-19.1
				h26.1c1.3,0,2.3,0.4,3.2,1.3c0.9,0.9,1.3,1.9,1.3,3.2v60.4c0,1.3-0.4,2.3-1.3,3.2c-0.9,0.9-2,1.3-3.2,1.3h-70.3
				c-1.3,0-2.3-0.4-3.2-1.3C330.7,453.5,330.3,452.4,330.3,451.2z M357.2,442h34.3v-42H377c-3.1,0-5.6,0.8-7.6,2.5
				c-2,1.7-3.4,4-4.1,7L357.2,442z"/>
			<path class="st1" d="M417.8,451.3l12.1-46c3.3-12.5,14-18.8,32.1-18.9h26.1c1.2,0,2.2,0.5,3,1.4c0.8,0.9,1.2,2,1.2,3.1v60.4
				c0,1.3-0.5,2.3-1.4,3.2c-0.9,0.9-2,1.3-3.2,1.3h-9.1c-1.3,0-2.4-0.4-3.3-1.3c-0.9-0.9-1.3-1.9-1.3-3.3V439h-34.4l-3.2,12.2
				c-0.3,1.3-1,2.4-2.2,3.3c-1.1,0.9-2.3,1.3-3.6,1.3h-9.5c-1.3,0-2.2-0.4-2.7-1.1c-0.5-0.7-0.8-1.4-0.8-1.9
				C417.7,452.2,417.7,451.7,417.8,451.3z M443.3,425.3h30.8v-25.2h-13.8c-3.1,0-5.8,0.9-8.1,2.6s-3.9,4.1-4.7,7.1L443.3,425.3z"/>
		</g>
	</g>
</g>
</svg>
