<?xml version="1.0" encoding="utf-8"?>
<!-- Generator: Adobe Illustrator 22.0.1, SVG Export Plug-In . SVG Version: 6.00 Build 0)  -->
<svg version="1.1" id="Слой_1" xmlns="http://www.w3.org/2000/svg" xmlns:xlink="http://www.w3.org/1999/xlink" x="0px" y="0px"
	 viewBox="0 0 481.9 425.2" style="enable-background:new 0 0 481.9 425.2;" xml:space="preserve">
<style type="text/css">
	.st0{fill:#2F7732;}
	.st1{display:none;}
	.st2{display:inline;fill:#2F7732;}
	.st3{fill:#145126;}
</style>
<g>
	<g>
		<g>
			<path class="st0" d="M355,105.9c-1.7-17.8-7.7-33-20.1-50.6c-17.5-24.8-45.9-39.6-76.2-39.6c-25.7,0-49.6,10.3-67.4,28.9
				l-1.8,1.9l-3.5-1.4c-5.7-2.3-11.7-3.4-17.8-3.4c-9.9,0-19.4,3-27.5,8.6c-5.6,3.8-10.3,8.8-13.8,14.6
				c10.6,4.3,19.3,12.5,24.2,22.8c0.9,1.8,3,2.6,4.8,1.9c8.2-3.3,17-5.1,25.9-5.1c29.6,0,55.5,18.6,64.9,46.4
				c19.2,5.9,32.5,23.6,32.5,43.9c0,0.9,0,1.9-0.1,2.8c-0.1,2.4,2,4.3,4.3,3.8C307.2,176.1,359.9,158.3,355,105.9z"/>
		</g>
		<g>
			<path class="st0" d="M361.9,160.3c3-1.9,6.2-4.1,9.1-6.6c5.8-5.1,12.2-10.4,19.4-13.9c7.7-3.7,16-4.2,23.9-4.2
				c16.9,0,32.7,7.1,43.9,19.1c-1.6-8.5-4-16.7-7.4-24.7c-6-14.3-14.7-27.2-25.7-38.3S401.3,71.9,387,65.8
				c-13.4-5.8-27.6-9-42.3-9.6c10.7,16.5,16.3,31.7,17.9,49c3.3,35.5-16.7,56.6-38.7,69.1c-1.5,0.9-0.6,3.2,1.1,2.7
				c5.6-1.6,11.2-3.6,16.8-6C348.8,168,355.6,164.4,361.9,160.3z"/>
		</g>
		<g>
			<path class="st0" d="M270.5,165.8c-3.3-14-14.7-24.7-28.7-28.2l-1.2-0.3l-0.6-2.1c-7.9-25.7-31.3-43-58.3-43
				c-10.4,0-20.6,2.7-29.7,7.7l0,0c-2.2,1.2-4.9,0.1-5.6-2.4l0,0c-3.4-12.8-13.5-23.1-26.3-26.8c-1.1-0.3-31-7.1-45.7,27l-0.6,1.5
				l-1.5,0.6c-13.2,5.1-25.1,13.4-34.6,24l-2.6,2.9l-1.3,1.7c-5.9,7.6-10.4,16-13.6,25c-3.3,9.4-5,19.3-5,29.3
				c0,13.8,3.1,27.1,9.2,39.3c5.4,10.9,13.1,20.7,22.4,28.6c27.2-18.4,91.8-51.3,168.8-16.5c2.9,1.3,6.2-0.4,6.8-3.5
				c2.3-12.4,8.5-24,17.8-32.8c6.9-6.6,14.8-10.8,24.9-13.2c3.4-0.8,5.9-3.7,6.2-7.2C271.8,173.7,271.4,169.7,270.5,165.8z"/>
		</g>
		<g>
			<path class="st0" d="M227.6,267.3c-2.8-6.5-4.4-13.6-5.1-18.5c-0.3-2-1.6-3.7-3.3-4.5c-74-37-137.2-7.2-165.3,11.1l7.6,4.9
				c1,0.6,7.7,4.1,9.5,4.9c4.3,1.8,8.8,3.2,13.3,4.2c17.3,4,34.3,3.9,47.8-0.2c6.5-2,12.4-4.9,17.5-8.7l2.8-2.1l3.6,4
				c9.7,11,23.7,17.4,38.4,17.4C206.6,279.8,218.3,275.4,227.6,267.3z"/>
		</g>
		<g>
			<g>
				<path class="st0" d="M365.3,294.7c3-0.5,6-1.3,9-2.1c5.5-1.4,11.1-2.9,16.8-2.9c14.5,0,28,7.2,36,19.3c7.1-3.3,13-8.6,17.3-15.1
					c4.5-6.8,6.8-14.8,6.8-23c0-9.3-3-18.2-8.6-25.6l-0.6-0.8l-2.2-2.8l3.6-2.6c14.5-9.7,23.2-26,23.2-43.5
					c0-28.8-23.5-52.3-52.3-52.3c-8,0-14.6,0.6-20.6,3.5c-6.4,3.1-12.2,8-17.7,12.8c-3.3,2.9-6.8,5.2-10,7.3
					c-6.7,4.3-13.9,8.1-21.3,11.3c-14.7,6.3-29.3,9.9-43.5,10.9c-3.1,0.2-6.2,0.4-9.3,0.5c-17.1,0.8-33.2,1.6-46.3,14
					c-10.4,9.8-16.3,23.7-16.3,38c0,28.8,23.5,52.3,52.3,52.3c5.5,0,10.9-0.9,16.2-2.6l1.2-0.4l1.2,0.4c12.6,4.3,25.7,6.5,39.2,6.5
					C347.5,297.7,355.9,296.3,365.3,294.7z"/>
			</g>
		</g>
	</g>
	<g>
		<g class="st1">
			<path class="st2" d="M51.4,400.9c-6-5.7-9-14.5-9-26.5s3-20.8,9-26.5s14.9-8.6,26.9-8.6h10.8c7.3,0,13.8,1.9,19.4,5.7
				c5.6,3.8,8.4,9,8.4,15.6c0,1.9-0.6,3.3-1.7,4.1c-1.1,0.8-2.2,1.2-3.3,1.2h-5.8c-3,0-5.3-1.8-6.9-5.3c-2.4-5.1-6.4-7.6-11.9-7.6
				h-8.6c-7.1,0-11.8,1.5-14.4,4.5c-2.5,3-3.8,8.6-3.8,16.8c0,8.2,1.3,13.8,3.8,16.9c2.5,3,7.3,4.6,14.4,4.6h9.6
				c5.5,0,9.5-2.5,11.8-7.6c1.6-3.6,4-5.4,7-5.4h5.8c1.5,0,2.7,0.6,3.6,1.7c0.9,1.1,1.3,2.4,1.3,3.7c0,6.6-2.8,11.8-8.4,15.6
				c-5.6,3.8-12.1,5.7-19.4,5.7H78.2C66.3,409.5,57.4,406.6,51.4,400.9z"/>
			<path class="st2" d="M127.3,404.5v-60.2c0-1.3,0.4-2.3,1.3-3.2c0.9-0.9,1.9-1.4,3.2-1.4h36.9c19.5,0,29.3,9,29.3,27
				s-9.8,27-29.3,27h-23.2v10.9c0,1.3-0.4,2.3-1.3,3.2s-2,1.3-3.2,1.3h-9.1c-1.3,0-2.3-0.4-3.2-1.3
				C127.8,406.9,127.3,405.8,127.3,404.5z M145.5,380h17.6c5.4,0,9.5-0.9,12.3-2.7c2.8-1.8,4.2-5.3,4.2-10.5s-1.4-8.7-4.2-10.5
				s-6.9-2.7-12.3-2.7h-17.6V380z"/>
			<path class="st2" d="M206.8,404.4v-60.2c0-1.3,0.5-2.3,1.4-3.2c0.9-0.9,2-1.3,3.2-1.3h55.7c1.3,0,2.3,0.5,3.2,1.4s1.3,2,1.3,3.2
				v4.5c0,1.3-0.4,2.3-1.3,3.2s-2,1.3-3.2,1.3H225v14.1h36.3c1.3,0,2.3,0.4,3.2,1.3c0.9,0.9,1.3,2,1.3,3.2v4.5
				c0,1.3-0.4,2.3-1.3,3.2c-0.9,0.9-2,1.3-3.2,1.3H225v14.3h42c1.2,0,2.3,0.4,3.1,1.3c0.9,0.9,1.3,1.9,1.3,3.2v4.6
				c0,1.3-0.5,2.3-1.4,3.2c-0.9,0.9-2,1.3-3.2,1.3h-55.4c-1.3,0-2.3-0.4-3.2-1.3C207.3,406.9,206.8,405.7,206.8,404.4z"/>
			<path class="st2" d="M273.7,404.5v-4.6c0-1.3,0.4-2.3,1.3-3.2c0.9-0.9,2-1.3,3.2-1.3h3.8l9-36.6c3.1-12.7,13.6-19.1,31.4-19.1
				h26.1c1.3,0,2.3,0.4,3.2,1.3c0.9,0.9,1.3,1.9,1.3,3.2v60.4c0,1.3-0.4,2.3-1.3,3.2s-2,1.3-3.2,1.3h-70.3c-1.3,0-2.3-0.4-3.2-1.3
				S273.7,405.8,273.7,404.5z M300.6,395.4h34.3v-42h-14.5c-3.1,0-5.6,0.8-7.6,2.5s-3.4,4-4.1,7L300.6,395.4z"/>
			<path class="st2" d="M361.2,404.6l12.1-46c3.3-12.5,14-18.8,32.1-18.9h26.1c1.2,0,2.2,0.5,3,1.4s1.2,2,1.2,3.1v60.4
				c0,1.3-0.5,2.3-1.4,3.2c-0.9,0.9-2,1.3-3.2,1.3H422c-1.3,0-2.4-0.4-3.3-1.3s-1.3-1.9-1.3-3.3v-12.2H383l-3.2,12.2
				c-0.3,1.3-1,2.4-2.2,3.3c-1.1,0.9-2.3,1.3-3.6,1.3h-9.5c-1.3,0-2.2-0.4-2.7-1.1s-0.8-1.4-0.8-1.9
				C361.1,405.5,361.1,405,361.2,404.6z M386.7,378.7h30.8v-25.2h-13.8c-3.1,0-5.8,0.9-8.1,2.6c-2.3,1.8-3.9,4.1-4.7,7.1
				L386.7,378.7z"/>
		</g>
		<g>
			<path class="st3" d="M51.4,395.1c-6-5.7-9-14.5-9-26.5s3-20.8,9-26.5s14.9-8.6,26.9-8.6h10.8c7.3,0,13.8,1.9,19.4,5.7
				c5.6,3.8,8.4,9,8.4,15.6c0,1.9-0.6,3.3-1.7,4.1c-1.1,0.8-2.2,1.2-3.3,1.2h-5.8c-3,0-5.3-1.8-6.9-5.3c-2.4-5.1-6.4-7.6-11.9-7.6
				h-8.6c-7.1,0-11.8,1.5-14.4,4.5c-2.5,3-3.8,8.6-3.8,16.8c0,8.2,1.3,13.8,3.8,16.9c2.5,3,7.3,4.6,14.4,4.6h9.6
				c5.5,0,9.5-2.5,11.8-7.6c1.6-3.6,4-5.4,7-5.4h5.8c1.5,0,2.7,0.6,3.6,1.7c0.9,1.1,1.3,2.4,1.3,3.7c0,6.6-2.8,11.8-8.4,15.6
				c-5.6,3.8-12.1,5.7-19.4,5.7H78.2C66.3,403.7,57.4,400.8,51.4,395.1z"/>
			<path class="st3" d="M127.3,398.8v-60.2c0-1.3,0.4-2.3,1.3-3.2c0.9-0.9,1.9-1.4,3.2-1.4h36.9c19.5,0,29.3,9,29.3,27
				s-9.8,27-29.3,27h-23.2v10.9c0,1.3-0.4,2.3-1.3,3.2c-0.9,0.9-2,1.3-3.2,1.3h-9.1c-1.3,0-2.3-0.4-3.2-1.3
				C127.7,401.1,127.3,400,127.3,398.8z M145.5,374.2h17.6c5.4,0,9.5-0.9,12.3-2.7c2.8-1.8,4.2-5.3,4.2-10.5s-1.4-8.7-4.2-10.5
				s-6.9-2.7-12.3-2.7h-17.6V374.2z"/>
			<path class="st3" d="M206.8,398.7v-60.2c0-1.3,0.5-2.3,1.4-3.2c0.9-0.9,2-1.3,3.2-1.3h55.7c1.3,0,2.3,0.5,3.2,1.4
				c0.9,0.9,1.3,2,1.3,3.2v4.5c0,1.3-0.4,2.3-1.3,3.2s-2,1.3-3.2,1.3H225v14.1h36.3c1.3,0,2.3,0.4,3.2,1.3c0.9,0.9,1.3,2,1.3,3.2
				v4.5c0,1.3-0.4,2.3-1.3,3.2c-0.9,0.9-2,1.3-3.2,1.3H225v14.4h42c1.2,0,2.3,0.4,3.1,1.3c0.9,0.9,1.3,1.9,1.3,3.2v4.6
				c0,1.3-0.5,2.3-1.4,3.2c-0.9,0.9-2,1.3-3.2,1.3h-55.4c-1.3,0-2.3-0.4-3.2-1.3C207.3,401.1,206.8,400,206.8,398.7z"/>
			<path class="st3" d="M273.7,398.8v-4.6c0-1.3,0.4-2.3,1.3-3.2c0.9-0.9,2-1.3,3.2-1.3h3.8l9-36.6c3.1-12.7,13.6-19.1,31.4-19.1
				h26.1c1.3,0,2.3,0.4,3.2,1.3c0.9,0.9,1.3,1.9,1.3,3.2v60.4c0,1.3-0.4,2.3-1.3,3.2c-0.9,0.9-2,1.3-3.2,1.3h-70.3
				c-1.3,0-2.3-0.4-3.2-1.3C274.1,401.1,273.7,400,273.7,398.8z M300.6,389.6h34.3v-42h-14.5c-3.1,0-5.6,0.8-7.6,2.5s-3.4,4-4.1,7
				L300.6,389.6z"/>
			<path class="st3" d="M361.2,398.9l12.1-46c3.3-12.5,14-18.8,32.1-18.9h26.1c1.2,0,2.2,0.5,3,1.4s1.2,2,1.2,3.1v60.4
				c0,1.3-0.5,2.3-1.4,3.2c-0.9,0.9-2,1.3-3.2,1.3H422c-1.3,0-2.4-0.4-3.3-1.3s-1.3-1.9-1.3-3.3v-12.2H383l-3.2,12.2
				c-0.3,1.3-1,2.4-2.2,3.3c-1.1,0.9-2.3,1.3-3.6,1.3h-9.5c-1.3,0-2.2-0.4-2.7-1.1s-0.8-1.4-0.8-1.9
				C361.1,399.8,361.1,399.3,361.2,398.9z M386.7,372.9h30.8v-25.2h-13.8c-3.1,0-5.8,0.9-8.1,2.6s-3.9,4.1-4.7,7.1L386.7,372.9z"/>
		</g>
	</g>
</g>
</svg>
