<?xml version="1.0" encoding="utf-8"?>
<!-- Generator: Adobe Illustrator 22.0.1, SVG Export Plug-In . SVG Version: 6.00 Build 0)  -->
<svg version="1.1" id="Слой_1" xmlns="http://www.w3.org/2000/svg" xmlns:xlink="http://www.w3.org/1999/xlink" x="0px" y="0px"
	 viewBox="0 0 708.7 595.3" style="enable-background:new 0 0 708.7 595.3;" xml:space="preserve">
<style type="text/css">
	.st0{fill:#FFFFFF;}
	.st1{fill:#145126;}
	.st2{fill:#2F7732;stroke:#2F7732;stroke-width:2.551;stroke-miterlimit:10;}
	.st3{fill:#2F7732;}
	.st4{display:none;}
	.st5{display:inline;fill:#2F7732;}
</style>
<g>
	<g>
		<g>
			<circle class="st0" cx="354.3" cy="268.1" r="262.8"/>
		</g>
		<g>
			<path class="st1" d="M354.3,7.9c143.5,0,260.2,116.7,260.2,260.2S497.8,528.3,354.3,528.3S94.1,411.5,94.1,268.1
				S210.9,7.9,354.3,7.9 M354.3,2.8C207.8,2.8,89,121.5,89,268.1s118.8,265.3,265.3,265.3s265.3-118.8,265.3-265.3
				S500.9,2.8,354.3,2.8L354.3,2.8z"/>
		</g>
	</g>
	<g>
		<path class="st2" d="M47,304.8c-7.5,1.2-12.7,8.2-11.5,15.7c0.8,4.8,3.9,8.6,8.1,10.5l0.3,1.9c-5.1-1.9-9.1-6.4-10.1-12.1
			c-1.3-8.4,4.4-16.4,12.9-17.7s16.3,4.4,17.7,12.9c0.9,5.4-1.2,10.7-5.1,14.1l-0.3-2c2.9-3,4.5-7.4,3.7-11.8
			C61.6,308.6,54.6,303.6,47,304.8z"/>
		<path class="st2" d="M69.8,350.2l-2.5-8.6l1.4-0.4l5.5,18.9l-1.4,0.4l-2.5-8.6l-26.7,7.8l-0.5-1.6L69.8,350.2z"/>
		<path class="st2" d="M44.9,394.5l-0.7-1.8l11.4-0.2L78,371.2l0.7,1.8l-20.9,19.7l28.9-0.7l0.7,1.8L44.9,394.5z"/>
		<path class="st2" d="M108.8,431.6l-21.3,12.7c-7.4,4.4-16.9,2.1-21.2-5.2c-2.9-4.9-2.9-11.1,0.1-16.2l1.1,1.9
			c-2.3,3.6-2.5,8.9,0.3,13.7c3.8,6.4,12.2,8.4,18.7,4.5l3.3-2c-4.5,0.7-11.7-2-14.7-7.1c-4.4-7.4-2-17.1,5.3-21.5
			c7.3-4.3,16.8-1.7,21.2,5.6c2.8,4.7,3,11-0.8,16.3l7-4.2L108.8,431.6z M100.2,418.8c-3.9-6.5-12.3-8.7-18.8-4.8
			c-6.6,3.9-8.8,12.4-4.9,18.9c3.9,6.6,12.4,8.6,19,4.7C102,433.7,104,425.3,100.2,418.8z"/>
		<path class="st2" d="M109.3,480.1l21.4-17.4L97,464.9l-1.6-1.9l22.7-18.4l1.1,1.3l-21.4,17.4l33.7-2.2l1.6,1.9l-22.7,18.4
			L109.3,480.1z"/>
		<path class="st2" d="M136.4,507.8l19.2-20.1l-6.3-6c-3-2.8-7.6-2.8-10.4,0.1c-2.8,2.9-2.6,7.6,0.4,10.4l2,1.9l-15.6,3.5l-1.4-1.3
			l13.9-3c-3.7-3.5-4-9.1-0.8-12.5c3.4-3.6,9.2-3.6,12.9-0.1l7.5,7.2l-20.2,21.2L136.4,507.8z"/>
		<path class="st2" d="M191.5,514.1l1.4,0.9l-4.2,7c5.3-3.8,11.6-3.6,16.3-0.8c7.4,4.4,10,13.9,5.7,21.2c-4.4,7.4-14.1,9.8-21.5,5.4
			c-5.1-3-7.7-8.3-7.1-14.7l-9.4,15.8l-1.4-0.9L191.5,514.1z M204.4,522.7c-6.5-3.9-14.9-1.8-18.8,4.7c-3.9,6.6-1.8,15.1,4.7,19
			c6.6,3.9,15,1.7,18.9-5C213.1,534.9,210.9,526.6,204.4,522.7z"/>
		<path class="st2" d="M249.5,566.3c-3.2,3.3-10.5,5.5-15.9,3.3c-8-3.2-12-12.3-8.8-20.3c3.1-7.9,12.3-11.6,20.3-8.4
			c5.1,2,9,6.9,9.3,13.4l3-7.6l1.6,0.6l-10.8,27.1l-1.6-0.6L249.5,566.3z M244.3,542.3c-7-2.8-15,0.5-17.8,7.6
			c-2.9,7.1,0.6,15.2,7.6,18c7.1,2.8,15.1-0.7,17.9-7.8C254.8,553.1,251.3,545.2,244.3,542.3z"/>
		<path class="st2" d="M274.4,552l1.6,0.4l-3.1,12.8l19.2,4.6l3.1-12.8l1.6,0.4l-6.8,28.4l-1.6-0.4l3.4-14.2l-19.2-4.6l-3.4,14.2
			l-1.6-0.4L274.4,552z"/>
		<path class="st2" d="M312.9,560l1.7,0.2l-1.3,13.1l19.7,2l1.3-13.1l1.7,0.2l-2.9,29.1l-1.7-0.2l1.5-14.6l-19.7-2l-1.5,14.6
			l-1.7-0.2L312.9,560z"/>
		<path class="st2" d="M353.1,577.5c0.3,7.7,6.7,13.7,14.2,13.4c5.2-0.2,9.6-3.3,11.8-7.7l1.9-0.1c-2.3,5.3-7.4,9.2-13.6,9.4
			c-8.5,0.3-15.7-6.3-16-14.9s6.3-15.7,14.8-16c8.5-0.3,15.8,6.2,16.1,14.7L353.1,577.5z M353,576l27.3-1.1
			c-1.1-6.9-7.1-11.9-14.2-11.6C359.1,563.6,353.5,569.1,353,576z"/>
		<path class="st2" d="M398.3,560.9l4.5,27.4l-1.7,0.3l-4.7-28.9l13.6-2.2l0.2,1.4L398.3,560.9z"/>
		<path class="st2" d="M426.7,569.2c-2.4-8.2,2.3-16.7,10.5-19.2c8.2-2.4,16.8,2.3,19.2,10.4c2.4,8.2-2.3,16.8-10.5,19.2
			C437.7,582.1,429.1,577.3,426.7,569.2z M454.7,561c-2.1-7.3-9.7-11.5-17-9.3c-7.3,2.1-11.4,9.7-9.2,17c2.1,7.3,9.7,11.5,17,9.4
			C452.7,575.9,456.8,568.3,454.7,561z"/>
		<path class="st2" d="M490.2,530l1.5-0.8l4.1,7.1c-0.8-6.5,2.5-11.9,7.2-14.7c7.4-4.3,17-2,21.3,5.3c4.3,7.4,1.7,17.1-5.7,21.4
			c-5.1,3-11,2.7-16.3-0.9l9.3,15.9l-1.5,0.8L490.2,530z M503.9,522.9c-6.5,3.8-8.8,12.2-5,18.7c3.9,6.6,12.4,8.9,18.9,5.1
			c6.6-3.9,8.7-12.3,4.8-19C518.8,521.2,510.5,519.1,503.9,522.9z"/>
		<path class="st2" d="M563.9,504.5c1.3,4.4-0.3,11.8-4.8,15.5c-6.7,5.4-16.6,4.5-22-2.2c-5.4-6.6-4.2-16.4,2.5-21.8
			c4.2-3.4,10.4-4.6,16.2-1.6l-5.1-6.3l1.3-1.1l18.4,22.6l-1.3,1.1L563.9,504.5z M540.5,497.5c-5.9,4.8-6.8,13.4-2,19.3
			c4.9,6,13.6,6.9,19.4,2.1c5.9-4.8,6.7-13.5,1.9-19.5C555,493.5,546.4,492.8,540.5,497.5z"/>
		<path class="st2" d="M573.8,483.9l5.9-6.3c2.1-2.2,1.7-5.9-0.8-8.3c-2.2-2-5.6-1.9-7.7,0.3l-7,7.5l-1.1-1l6.9-7.4
			c2.8-3,7.3-3.3,10.1-0.7c2.4,2.2,3.2,5.8,1.9,8c2.8-2,7.1-1.7,9.6,0.7c3.2,3,3.2,8.3-0.1,11.7l-7.2,7.7l-1.1-1l7.3-7.8
			c2.5-2.7,2.5-6.8-0.2-9.2c-2.7-2.5-6.9-2.4-9.4,0.2l-6.1,6.6L573.8,483.9z"/>
		<path class="st2" d="M585.8,450.6l6-8.2c2.4-3.3,6.9-4.1,10-1.8c2.6,1.9,3.9,5.4,2.8,7.8c2.5-2.3,6.9-2.5,9.6-0.4
			c3.5,2.6,4.1,7.9,1.3,11.6l-6.2,8.4L585.8,450.6z M597.4,457l5.1-6.9c1.8-2.4,1-6.1-1.8-8.2c-2.4-1.8-5.8-1.2-7.6,1.2l-5.1,6.9
			L597.4,457z M609.1,465.7l5.3-7.2c2.2-2.9,1.7-7-1.2-9.2c-2.9-2.2-7.2-1.6-9.4,1.3l-5.3,7.2L609.1,465.7z"/>
		<path class="st2" d="M642,417.3l-24-13.5l14.5,30.6l-1.2,2.2l-25.5-14.3l0.8-1.5l24,13.5l-14.5-30.6l1.2-2.2l25.5,14.3L642,417.3z
			"/>
		<path class="st2" d="M628,381.2l-3.4,8.3l-1.4-0.6l7.5-18.2l1.3,0.6l-3.4,8.3l25.7,10.5l-0.6,1.6L628,381.2z"/>
		<path class="st2" d="M669.4,343.9l-26.6-7.3l21.4,26.2l-0.7,2.4l-28.2-7.7l0.4-1.6l26.6,7.3L641,336.9l0.7-2.4l28.2,7.7
			L669.4,343.9z"/>
		<path class="st2" d="M676.1,305.7l-27.5-3.9l-1.2,8.6c-0.6,4.1,2.2,7.8,6.1,8.4c4,0.6,7.7-2.3,8.3-6.4l0.4-2.7l11.9,10.6l-0.3,1.9
			l-10.6-9.5c-0.7,5.1-5.1,8.6-9.7,7.9c-4.9-0.7-8.3-5.4-7.6-10.4l1.4-10.3l29,4.1L676.1,305.7z"/>
	</g>
	<g>
		<path class="st1" d="M354.3,549.6c-154.4,0-280.2-124.9-281.5-279H17.5c-1.4,0-2.6-1.1-2.6-2.6c0-1.4,1.1-2.6,2.6-2.6h60.4v2.6
			c0,152.4,124,276.4,276.4,276.4s276.4-124,276.4-276.4v-2.6h60.4c1.4,0,2.6,1.1,2.6,2.6c0,1.4-1.1,2.6-2.6,2.6h-55.3
			C634.5,424.7,508.7,549.6,354.3,549.6z"/>
	</g>
	<g>
		<g>
			<path class="st3" d="M468.3,128.8c-1.7-17.8-7.7-33-20.1-50.6c-17.5-24.8-45.9-39.6-76.2-39.6c-25.7,0-49.6,10.3-67.4,28.9
				l-1.8,1.9l-3.5-1.4c-5.7-2.3-11.7-3.4-17.8-3.4c-9.9,0-19.4,3-27.5,8.6c-5.6,3.8-10.3,8.8-13.8,14.6
				c10.6,4.3,19.3,12.5,24.2,22.8c0.9,1.8,3,2.6,4.8,1.9c8.2-3.3,17-5.1,25.9-5.1c29.6,0,55.5,18.6,64.9,46.4
				c19.2,5.9,32.5,23.6,32.5,43.9c0,0.9,0,1.9-0.1,2.8c-0.1,2.4,2,4.3,4.3,3.8C420.5,198.9,473.2,181.1,468.3,128.8z"/>
		</g>
		<g>
			<path class="st3" d="M475.2,183.2c3-1.9,6.2-4.1,9.1-6.6c5.8-5.1,12.2-10.4,19.4-13.9c7.7-3.7,16-4.2,23.9-4.2
				c16.9,0,32.7,7.1,43.9,19.1c-1.6-8.5-4-16.7-7.4-24.7c-6-14.3-14.7-27.2-25.7-38.3c-11-11.1-23.8-19.8-38.1-25.9
				c-13.4-5.8-27.6-9-42.3-9.6c10.7,16.5,16.3,31.7,17.9,49c3.3,35.5-16.7,56.6-38.7,69.1c-1.5,0.9-0.6,3.2,1.1,2.7
				c5.6-1.6,11.2-3.6,16.8-6C462.1,190.8,468.9,187.3,475.2,183.2z"/>
		</g>
		<g>
			<path class="st3" d="M383.8,188.6c-3.3-14-14.7-24.7-28.7-28.2l-1.2-0.3l-0.6-2.1c-7.9-25.7-31.3-43-58.3-43
				c-10.4,0-20.6,2.7-29.7,7.7l0,0c-2.2,1.2-4.9,0.1-5.6-2.4l0,0c-3.4-12.8-13.5-23.1-26.3-26.8c-1.1-0.3-31-7.1-45.7,27l-0.6,1.5
				l-1.5,0.6c-13.2,5.1-25.1,13.4-34.6,24l-2.6,2.9l-1.3,1.7c-5.9,7.6-10.4,16-13.6,25c-3.3,9.4-5,19.3-5,29.3
				c0,13.8,3.1,27.1,9.2,39.3c5.4,10.9,13.1,20.7,22.4,28.6c27.2-18.4,91.8-51.3,168.8-16.5c2.9,1.3,6.2-0.4,6.8-3.5
				c2.3-12.4,8.5-24,17.8-32.8c6.9-6.6,14.8-10.8,24.9-13.2c3.4-0.8,5.9-3.7,6.2-7.2C385.1,196.5,384.7,192.5,383.8,188.6z"/>
		</g>
		<g>
			<path class="st3" d="M340.9,290.1c-2.8-6.5-4.4-13.6-5.1-18.5c-0.3-2-1.6-3.7-3.3-4.5c-74-37-137.2-7.2-165.3,11.1l7.6,4.9
				c1,0.6,7.7,4.1,9.5,4.9c4.3,1.8,8.8,3.2,13.3,4.2c17.3,4,34.3,3.9,47.8-0.2c6.5-2,12.4-4.9,17.5-8.7l2.8-2.1l3.6,4
				c9.7,11,23.7,17.4,38.4,17.4C319.9,302.6,331.6,298.2,340.9,290.1z"/>
		</g>
		<g>
			<g>
				<path class="st3" d="M478.6,317.5c3-0.5,6-1.3,9-2.1c5.5-1.4,11.1-2.9,16.8-2.9c14.5,0,28,7.2,36,19.3c7.1-3.3,13-8.6,17.3-15.1
					c4.5-6.8,6.8-14.8,6.8-23c0-9.3-3-18.2-8.6-25.6l-0.6-0.8l-2.2-2.8l3.6-2.6c14.5-9.7,23.2-26,23.2-43.5
					c0-28.8-23.5-52.3-52.3-52.3c-8,0-14.6,0.6-20.6,3.5c-6.4,3.1-12.2,8-17.7,12.8c-3.3,2.9-6.8,5.2-10,7.3
					c-6.7,4.3-13.9,8.1-21.3,11.3c-14.7,6.3-29.3,9.9-43.5,10.9c-3.1,0.2-6.2,0.4-9.3,0.5c-17.1,0.8-33.2,1.6-46.3,14
					c-10.4,9.8-16.3,23.7-16.3,38c0,28.8,23.5,52.3,52.3,52.3c5.5,0,10.9-0.9,16.2-2.6l1.2-0.4l1.2,0.4c12.6,4.3,25.7,6.5,39.2,6.5
					C460.8,320.6,469.2,319.2,478.6,317.5z"/>
			</g>
		</g>
	</g>
	<g>
		<g class="st4">
			<path class="st5" d="M164.7,423.7c-6-5.7-9-14.5-9-26.5s3-20.8,9-26.5c6-5.7,14.9-8.6,26.9-8.6h10.8c7.3,0,13.8,1.9,19.4,5.7
				c5.6,3.8,8.4,9,8.4,15.6c0,1.9-0.6,3.3-1.7,4.1c-1.1,0.8-2.2,1.2-3.3,1.2h-5.8c-3,0-5.3-1.8-6.9-5.3c-2.4-5.1-6.4-7.6-11.9-7.6
				h-8.6c-7.1,0-11.8,1.5-14.4,4.5c-2.5,3-3.8,8.6-3.8,16.8c0,8.2,1.3,13.8,3.8,16.9c2.5,3,7.3,4.6,14.4,4.6h9.6
				c5.5,0,9.5-2.5,11.8-7.6c1.6-3.6,4-5.4,7-5.4h5.8c1.5,0,2.7,0.6,3.6,1.7c0.9,1.1,1.3,2.4,1.3,3.7c0,6.6-2.8,11.8-8.4,15.6
				c-5.6,3.8-12.1,5.7-19.4,5.7h-11.8C179.6,432.3,170.7,429.4,164.7,423.7z"/>
			<path class="st5" d="M240.6,427.3v-60.2c0-1.3,0.4-2.3,1.3-3.2c0.9-0.9,1.9-1.4,3.2-1.4H282c19.5,0,29.3,9,29.3,27
				c0,18-9.8,27-29.3,27h-23.2v10.9c0,1.3-0.4,2.3-1.3,3.2s-2,1.3-3.2,1.3h-9.1c-1.3,0-2.3-0.4-3.2-1.3
				C241,429.7,240.6,428.6,240.6,427.3z M258.8,402.8h17.6c5.4,0,9.5-0.9,12.3-2.7c2.8-1.8,4.2-5.3,4.2-10.5c0-5.2-1.4-8.7-4.2-10.5
				c-2.8-1.8-6.9-2.7-12.3-2.7h-17.6V402.8z"/>
			<path class="st5" d="M320.1,427.3v-60.2c0-1.3,0.5-2.3,1.4-3.2c0.9-0.9,2-1.3,3.2-1.3h55.7c1.3,0,2.3,0.5,3.2,1.4
				c0.9,0.9,1.3,2,1.3,3.2v4.5c0,1.3-0.4,2.3-1.3,3.2c-0.9,0.9-2,1.3-3.2,1.3h-42.1v14.1h36.3c1.3,0,2.3,0.4,3.2,1.3
				c0.9,0.9,1.3,2,1.3,3.2v4.5c0,1.3-0.4,2.3-1.3,3.2c-0.9,0.9-2,1.3-3.2,1.3h-36.3v14.3h42c1.2,0,2.3,0.4,3.1,1.3
				c0.9,0.9,1.3,1.9,1.3,3.2v4.6c0,1.3-0.5,2.3-1.4,3.2c-0.9,0.9-2,1.3-3.2,1.3h-55.5c-1.3,0-2.3-0.4-3.2-1.3
				S320.1,428.6,320.1,427.3z"/>
			<path class="st5" d="M387,427.3v-4.6c0-1.3,0.4-2.3,1.3-3.2s2-1.3,3.2-1.3h3.8l9-36.6c3.1-12.7,13.6-19.1,31.4-19.1h26.1
				c1.3,0,2.3,0.4,3.2,1.3c0.9,0.9,1.3,1.9,1.3,3.2v60.4c0,1.3-0.4,2.3-1.3,3.2c-0.9,0.9-2,1.3-3.2,1.3h-70.3
				c-1.3,0-2.3-0.4-3.2-1.3S387,428.6,387,427.3z M413.9,418.2h34.3v-42h-14.5c-3.1,0-5.6,0.8-7.6,2.5c-2,1.7-3.4,4-4.1,7
				L413.9,418.2z"/>
			<path class="st5" d="M474.5,427.4l12.1-46c3.3-12.5,14-18.8,32.1-18.9h26.1c1.2,0,2.2,0.5,3,1.4c0.8,0.9,1.2,2,1.2,3.1v60.4
				c0,1.3-0.5,2.3-1.4,3.2c-0.9,0.9-2,1.3-3.2,1.3h-9.1c-1.3,0-2.4-0.4-3.3-1.3s-1.3-1.9-1.3-3.3v-12.2h-34.4l-3.2,12.2
				c-0.3,1.3-1,2.4-2.2,3.3c-1.1,0.9-2.3,1.3-3.6,1.3h-9.5c-1.3,0-2.2-0.4-2.7-1.1c-0.5-0.7-0.8-1.4-0.8-1.9
				C474.4,428.3,474.4,427.9,474.5,427.4z M500,401.5h30.8v-25.2H517c-3.1,0-5.8,0.9-8.1,2.6c-2.3,1.8-3.9,4.1-4.7,7.1L500,401.5z"
				/>
		</g>
		<g>
			<path class="st1" d="M164.7,418c-6-5.7-9-14.5-9-26.5c0-11.9,3-20.8,9-26.5c6-5.7,14.9-8.6,26.9-8.6h10.8
				c7.3,0,13.8,1.9,19.4,5.7c5.6,3.8,8.4,9,8.4,15.6c0,1.9-0.6,3.3-1.7,4.1c-1.1,0.8-2.2,1.2-3.3,1.2h-5.8c-3,0-5.3-1.8-6.9-5.3
				c-2.4-5.1-6.4-7.6-11.9-7.6h-8.6c-7.1,0-11.8,1.5-14.4,4.5c-2.5,3-3.8,8.6-3.8,16.8c0,8.2,1.3,13.8,3.8,16.9
				c2.5,3,7.3,4.6,14.4,4.6h9.6c5.5,0,9.5-2.5,11.8-7.6c1.6-3.6,4-5.4,7-5.4h5.8c1.5,0,2.7,0.6,3.6,1.7c0.9,1.1,1.3,2.4,1.3,3.7
				c0,6.6-2.8,11.8-8.4,15.6c-5.6,3.8-12.1,5.7-19.4,5.7h-11.8C179.6,426.5,170.7,423.7,164.7,418z"/>
			<path class="st1" d="M240.6,421.6v-60.2c0-1.3,0.4-2.3,1.3-3.2c0.9-0.9,1.9-1.4,3.2-1.4H282c19.5,0,29.3,9,29.3,27
				c0,18-9.8,27-29.3,27h-23.2v10.9c0,1.3-0.4,2.3-1.3,3.2s-2,1.3-3.2,1.3h-9.1c-1.3,0-2.3-0.4-3.2-1.3
				C241,423.9,240.6,422.8,240.6,421.6z M258.8,397h17.6c5.4,0,9.5-0.9,12.3-2.7c2.8-1.8,4.2-5.3,4.2-10.5c0-5.2-1.4-8.7-4.2-10.5
				c-2.8-1.8-6.9-2.7-12.3-2.7h-17.6V397z"/>
			<path class="st1" d="M320.1,421.5v-60.2c0-1.3,0.5-2.3,1.4-3.2c0.9-0.9,2-1.3,3.2-1.3h55.7c1.3,0,2.3,0.5,3.2,1.4
				c0.9,0.9,1.3,2,1.3,3.2v4.5c0,1.3-0.4,2.3-1.3,3.2c-0.9,0.9-2,1.3-3.2,1.3h-42.1v14.1h36.3c1.3,0,2.3,0.4,3.2,1.3
				c0.9,0.9,1.3,2,1.3,3.2v4.5c0,1.3-0.4,2.3-1.3,3.2c-0.9,0.9-2,1.3-3.2,1.3h-36.3v14.3h42c1.2,0,2.3,0.4,3.1,1.3
				c0.9,0.9,1.3,1.9,1.3,3.2v4.6c0,1.3-0.5,2.3-1.4,3.2c-0.9,0.9-2,1.3-3.2,1.3h-55.5c-1.3,0-2.3-0.4-3.2-1.3
				S320.1,422.8,320.1,421.5z"/>
			<path class="st1" d="M387,421.6v-4.6c0-1.3,0.4-2.3,1.3-3.2s2-1.3,3.2-1.3h3.8l9-36.6c3.1-12.7,13.6-19.1,31.4-19.1h26.1
				c1.3,0,2.3,0.4,3.2,1.3c0.9,0.9,1.3,1.9,1.3,3.2v60.4c0,1.3-0.4,2.3-1.3,3.2c-0.9,0.9-2,1.3-3.2,1.3h-70.3
				c-1.3,0-2.3-0.4-3.2-1.3S387,422.8,387,421.6z M413.9,412.4h34.3v-42h-14.5c-3.1,0-5.6,0.8-7.6,2.5c-2,1.7-3.4,4-4.1,7
				L413.9,412.4z"/>
			<path class="st1" d="M474.5,421.7l12.1-46c3.3-12.5,14-18.8,32.1-18.9h26.1c1.2,0,2.2,0.5,3,1.4c0.8,0.9,1.2,2,1.2,3.1v60.4
				c0,1.3-0.5,2.3-1.4,3.2c-0.9,0.9-2,1.3-3.2,1.3h-9.1c-1.3,0-2.4-0.4-3.3-1.3s-1.3-1.9-1.3-3.3v-12.2h-34.4l-3.2,12.2
				c-0.3,1.3-1,2.4-2.2,3.3c-1.1,0.9-2.3,1.3-3.6,1.3h-9.5c-1.3,0-2.2-0.4-2.7-1.1c-0.5-0.7-0.8-1.4-0.8-1.9
				C474.4,422.6,474.4,422.1,474.5,421.7z M500,395.7h30.8v-25.2H517c-3.1,0-5.8,0.9-8.1,2.6c-2.3,1.8-3.9,4.1-4.7,7.1L500,395.7z"
				/>
		</g>
	</g>
</g>
</svg>
