<?xml version="1.0" encoding="utf-8"?>
<!-- Generator: Adobe Illustrator 22.0.1, SVG Export Plug-In . SVG Version: 6.00 Build 0)  -->
<svg version="1.1" id="Слой_1" xmlns="http://www.w3.org/2000/svg" xmlns:xlink="http://www.w3.org/1999/xlink" x="0px" y="0px"
	 viewBox="0 0 232.4 266.5" style="enable-background:new 0 0 232.4 266.5;" xml:space="preserve">
<style type="text/css">
	.st0{fill:#444343;stroke:#444343;stroke-miterlimit:10;}
</style>
<g>
	<g>
		<g>
			<g>
				<path class="st0" d="M115.3,262.7c-0.3,0-0.6-0.1-0.8-0.2c-0.5-0.3-0.8-0.9-0.8-1.5l0.4-126.8c0-0.6,0.3-1.1,0.8-1.4l111.9-65
					c0.3-0.1,0.6-0.2,0.8-0.2c0.3,0,0.6,0.1,0.8,0.2c0.5,0.3,0.8,0.9,0.8,1.5L228.9,196c0,0.6-0.3,1.1-0.8,1.4l-111.9,65
					C115.9,262.6,115.6,262.7,115.3,262.7z M117.3,135.2l-0.3,123L225.5,195l0.4-123L117.3,135.2z"/>
			</g>
		</g>
		<g>
			<g>
				<path class="st0" d="M115.6,135.9c-0.3,0-0.6-0.1-0.8-0.2L4.4,71.9c-0.5-0.3-0.8-0.9-0.8-1.5c0-0.6,0.3-1.1,0.8-1.4L116.3,4
					c0.3-0.1,0.6-0.2,0.8-0.2c0.3,0,0.6,0.1,0.8,0.2l110.4,63.7c0.5,0.3,0.8,0.9,0.8,1.5c0,0.6-0.3,1.1-0.8,1.4l-111.9,65
					C116.2,135.8,115.9,135.9,115.6,135.9z M8.6,70.5l107,61.8l108.6-63.1l-107-61.8L8.6,70.5z"/>
			</g>
		</g>
		<g>
			<g>
				<polygon class="st0" points="85.1,150.4 82.6,150.4 36.8,177 36.8,180 39,180 38.6,179.8 85.1,152.8 				"/>
			</g>
		</g>
		<g>
			<g>
				<path class="st0" d="M115.3,262.7c-0.3,0-0.6-0.1-0.8-0.2L4.1,198.7c-0.5-0.3-0.8-0.9-0.8-1.5L3.6,70.5c0-0.6,0.3-1.1,0.8-1.4
					c0.3-0.1,0.5-0.2,0.8-0.2c0.3,0,0.6,0.1,0.8,0.2l110.4,63.7c0.5,0.3,0.8,0.9,0.8,1.5L117,261c0,0.6-0.3,1.1-0.8,1.4
					C115.9,262.6,115.6,262.7,115.3,262.7z M6.6,196.3l107,61.8l0.3-123L6.9,73.4L6.6,196.3z"/>
			</g>
		</g>
		<g>
			<g>
				<path class="st0" d="M86,211c-0.1,0-0.3,0-0.4-0.1L34,181.2c-0.2-0.1-0.4-0.4-0.4-0.7l0.2-59.3c0-0.3,0.2-0.5,0.4-0.7
					c0.1-0.1,0.3-0.1,0.4-0.1c0.1,0,0.3,0,0.4,0.1l51.6,29.8c0.2,0.1,0.4,0.4,0.4,0.7l-0.2,59.3c0,0.3-0.2,0.5-0.4,0.7
					C86.2,211,86.1,211,86,211z M37.1,178.9l46.1,26.6l0.2-53l-46.1-26.6L37.1,178.9z"/>
			</g>
		</g>
		<path class="st0" d="M229.2,68.9l-7.1,4.1L115.9,179.1l0,5.5L229.2,71.4l0-2.2C229.2,69.1,229.2,69,229.2,68.9z M115.7,258
			L229,144.8l0-5.5L115.7,252.5L115.7,258z M197.1,213.1l31.8-31.6l0-5.5l-44.8,44.7L197.1,213.1z M153.5,238.5l75.5-75.3l0-5.5
			L140.4,246L153.5,238.5z M140.9,117.6L116,142.4l0,5.5l38-37.9L140.9,117.6z M115.8,221.3l113.3-113.2l0-5.5L115.8,215.8
			L115.8,221.3z M115.8,202.9L229.2,89.8l0-5.5L115.8,197.4L115.8,202.9z M184.8,92.1l-68.8,68.7l0,5.5l81.9-81.7L184.8,92.1z
			 M115.7,239.6l113.3-113.2l0-5.5L115.7,234.1L115.7,239.6z"/>
		<path class="st0" d="M55.7,191.4l3.4,2l25.8-25.7l0.1-5.5L55.7,191.4z M70.6,200.3l14-14l0.1-5.5l-17.5,17.5L70.6,200.3z
			 M82.1,207.1l2.3-2.3l0.1-5.5l-5.8,5.8L82.1,207.1z M67.7,161.1l-23.5,23.5l3.4,2l32.2-32.1L67.7,161.1z M36.1,179.9l3.1-3.1
			l-4.4,2.4L36.1,179.9z"/>
	</g>
</g>
</svg>
